<svg width="78" height="78" viewBox="0 0 78 78" fill="none" xmlns="http://www.w3.org/2000/svg">
<g id="Group 32">
<g id="&#240;&#159;&#166;&#134; icon &#34;user edit&#34;">
<g id="Group">
<path id="Vector" d="M38.8113 45.0871C31.069 45.0871 24.7677 38.7858 24.7677 31.0436C24.7677 23.3013 31.069 17 38.8113 17C46.5535 17 52.8548 23.3013 52.8548 31.0436C52.8548 38.7858 46.5535 45.0871 38.8113 45.0871ZM38.8113 20.6635C33.0961 20.6635 28.4312 25.3284 28.4312 31.0436C28.4312 36.7587 33.0961 41.4236 38.8113 41.4236C44.5264 41.4236 49.1913 36.7587 49.1913 31.0436C49.1913 25.3284 44.5264 20.6635 38.8113 20.6635Z" fill="#6BADD5"/>
<path id="Vector_2" d="M48.1401 69.5106C47.212 69.5106 46.3328 69.1687 45.6977 68.5336C44.9406 67.7765 44.5987 66.6775 44.7696 65.5295L45.2337 62.2324C45.3558 61.3775 45.8687 60.3762 46.4793 59.7412L55.1252 51.0952C58.5934 47.6271 61.6463 49.6054 63.1362 51.0952C64.4062 52.3652 65.0656 53.733 65.0656 55.1007C65.0656 56.4928 64.4306 57.7873 63.1362 59.0817L54.49 67.7277C53.8794 68.3383 52.8538 68.8512 51.999 68.9733L48.7016 69.4371C48.5062 69.4859 48.3355 69.5106 48.1401 69.5106ZM59.1063 52.8293C58.6667 52.8293 58.2759 53.1224 57.7141 53.6841L49.0682 62.3301C48.9949 62.4033 48.8728 62.6476 48.8728 62.7453L48.4332 65.7982L51.4861 65.3586C51.5838 65.3342 51.8278 65.212 51.9011 65.1388L60.5473 56.4928C60.9381 56.102 61.4021 55.5403 61.4021 55.1007C61.4021 54.7343 61.109 54.2214 60.5473 53.6841C59.9611 53.0979 59.5215 52.8293 59.1063 52.8293Z" fill="#6BADD5"/>
<path id="Vector_3" d="M60.5986 60.8887C60.4276 60.8887 60.2566 60.8645 60.1101 60.8157C56.8862 59.912 54.3217 57.3475 53.418 54.1236C53.1494 53.1467 53.7111 52.1453 54.688 51.8766C55.665 51.608 56.6664 52.1697 56.935 53.1467C57.4968 55.1494 59.0843 56.7369 61.087 57.2987C62.064 57.5673 62.6257 58.5931 62.357 59.5456C62.1372 60.3516 61.4045 60.8887 60.5986 60.8887Z" fill="#6BADD5"/>
<path id="Vector_4" d="M17.8318 69.5105C16.8304 69.5105 16 68.6801 16 67.6788C16 57.2499 26.2335 48.7505 38.8117 48.7505C41.4739 48.7505 44.1116 49.1413 46.5784 49.874C47.5554 50.1671 48.0927 51.1928 47.7996 52.1454C47.5065 53.1223 46.4807 53.6596 45.5282 53.3665C43.3789 52.7315 41.132 52.3896 38.8117 52.3896C28.2607 52.3896 19.6635 59.2282 19.6635 67.6543C19.6635 68.6801 18.8331 69.5105 17.8318 69.5105Z" fill="#6BADD5"/>
</g>
</g>
<circle id="Ellipse 3" cx="39" cy="39" r="37" stroke="#6BADD5" stroke-width="4"/>
</g>
</svg>
