<svg width="78" height="78" viewBox="0 0 78 78" fill="none" xmlns="http://www.w3.org/2000/svg">
<g id="Group 31">
<circle id="Ellipse 3" cx="39" cy="39" r="37" fill="white" stroke="white" stroke-width="4"/>
<g id="&#240;&#159;&#166;&#134; icon &#34;user&#34;">
<g id="Group">
<path id="Vector" d="M38.9018 45.43C30.7894 45.43 24.1868 38.8274 24.1868 30.715C24.1868 22.6025 30.7894 16 38.9018 16C47.0142 16 53.6168 22.6025 53.6168 30.715C53.6168 38.8274 47.0142 45.43 38.9018 45.43ZM38.9018 19.8387C32.9135 19.8387 28.0255 24.7266 28.0255 30.715C28.0255 36.7033 32.9135 41.5913 38.9018 41.5913C44.8902 41.5913 49.7781 36.7033 49.7781 30.715C49.7781 24.7266 44.8902 19.8387 38.9018 19.8387Z" fill="#6BADD5"/>
<path id="Vector_2" d="M60.885 71.0206C59.8357 71.0206 58.9656 70.1505 58.9656 69.1013C58.9656 60.2723 49.9578 53.1068 38.9023 53.1068C27.8468 53.1068 18.8387 60.2723 18.8387 69.1013C18.8387 70.1505 17.9686 71.0206 16.9193 71.0206C15.8701 71.0206 15 70.1505 15 69.1013C15 58.1738 25.7227 49.2681 38.9023 49.2681C52.0819 49.2681 62.8043 58.1738 62.8043 69.1013C62.8043 70.1505 61.9342 71.0206 60.885 71.0206Z" fill="#6BADD5"/>
</g>
</g>
</g>
</svg>
