<svg width="21" height="17" viewBox="0 0 21 17" fill="none" xmlns="http://www.w3.org/2000/svg">
<g id="&#240;&#159;&#166;&#134; icon &#34;volume high&#34;">
<g id="Group">
<path id="Vector" d="M11.046 16.8114C10.2738 16.8114 9.42331 16.5377 8.57286 16.0001L5.7185 14.2112C5.523 14.0939 5.29817 14.0255 5.07334 14.0255H3.66571C1.3001 14.0255 0 12.7254 0 10.3598V6.4497C0 4.0841 1.3001 2.784 3.66571 2.784H5.06356C5.28839 2.784 5.51322 2.71557 5.70873 2.59827L8.56309 0.809403C9.99027 -0.0801415 11.3784 -0.24632 12.4732 0.359743C13.568 0.965807 14.1643 2.22681 14.1643 3.91792V12.8818C14.1643 14.5631 13.5582 15.8339 12.4732 16.44C12.0431 16.6941 11.5543 16.8114 11.046 16.8114ZM3.66571 4.26005C2.12122 4.26005 1.46628 4.91499 1.46628 6.45947V10.3696C1.46628 11.914 2.12122 12.569 3.66571 12.569H5.06356C5.57187 12.569 6.06063 12.7058 6.49074 12.9795L9.34511 14.7684C10.2835 15.3549 11.1731 15.5113 11.7694 15.179C12.3656 14.8466 12.7078 14.0157 12.7078 12.9111V3.9277C12.7078 2.81332 12.3656 1.98243 11.7694 1.65985C11.1731 1.32749 10.2835 1.47412 9.34511 2.07041L6.48097 3.8495C6.06063 4.1232 5.5621 4.26005 5.06356 4.26005H3.66571Z" fill="white"/>
<path id="Vector_2" d="M16.3738 13.0573C16.2174 13.0573 16.0708 13.0084 15.9339 12.9106C15.6113 12.6662 15.5429 12.2068 15.7873 11.8842C17.322 9.8412 17.322 6.98684 15.7873 4.9438C15.5429 4.62122 15.6113 4.16178 15.9339 3.9174C16.2565 3.67302 16.7159 3.74145 16.9603 4.06403C18.8762 6.62516 18.8762 10.2029 16.9603 12.764C16.8137 12.9595 16.5986 13.0573 16.3738 13.0573Z" fill="white"/>
<path id="Vector_3" d="M18.1628 15.501C18.0064 15.501 17.8597 15.4521 17.7229 15.3544C17.4003 15.11 17.3319 14.6506 17.5762 14.328C20.1862 10.848 20.1862 5.97993 17.5762 2.49995C17.3319 2.17737 17.4003 1.71794 17.7229 1.47356C18.0455 1.22917 18.5049 1.2976 18.7493 1.62018C21.7503 5.61825 21.7503 11.2097 18.7493 15.2078C18.6124 15.4033 18.3876 15.501 18.1628 15.501Z" fill="white"/>
</g>
</g>
</svg>
