<svg width="20" height="19" viewBox="0 0 20 19" fill="none" xmlns="http://www.w3.org/2000/svg">
<g id="&#240;&#159;&#166;&#134; icon &#34;message question&#34;">
<g id="Group">
<path id="Vector" d="M6.21669 19C5.95881 19 5.6917 18.9355 5.45225 18.8066C4.92728 18.5303 4.60495 17.9777 4.60495 17.3883V16.0806C1.82356 15.795 0 13.7504 0 10.8216V5.2957C0 2.12749 2.12749 0 5.2957 0H14.5056C17.6738 0 19.8013 2.12749 19.8013 5.2957V10.8216C19.8013 13.9898 17.6738 16.1173 14.5056 16.1173H11.0335L7.11002 18.733C6.84293 18.908 6.52982 19 6.21669 19ZM5.2957 1.37227C2.91954 1.37227 1.38149 2.91032 1.38149 5.28648V10.8125C1.38149 13.1886 2.91954 14.7267 5.2957 14.7267C5.6733 14.7267 5.98644 15.0398 5.98644 15.4174V17.3791C5.98644 17.4989 6.06012 17.5541 6.10617 17.5818C6.15223 17.6094 6.24433 17.637 6.34563 17.5726L10.444 14.8464C10.5546 14.7727 10.6927 14.7267 10.8308 14.7267H14.5148C16.891 14.7267 18.429 13.1886 18.429 10.8125V5.28648C18.429 2.91032 16.891 1.37227 14.5148 1.37227H5.2957Z" fill="white"/>
<path id="Vector_2" d="M9.90047 9.59678C9.52287 9.59678 9.20973 9.28364 9.20973 8.90604V8.71263C9.20973 7.64428 9.99257 7.11931 10.2873 6.91669C10.6281 6.68644 10.7386 6.52988 10.7386 6.29043C10.7386 5.82993 10.361 5.45229 9.90047 5.45229C9.43998 5.45229 9.06237 5.82993 9.06237 6.29043C9.06237 6.66803 8.74924 6.98117 8.37163 6.98117C7.99406 6.98117 7.68092 6.66803 7.68092 6.29043C7.68092 5.06551 8.67556 4.0708 9.90047 4.0708C11.1254 4.0708 12.1201 5.06551 12.1201 6.29043C12.1201 7.34035 11.3464 7.86532 11.0609 8.05873C10.7017 8.29818 10.5912 8.45475 10.5912 8.71263V8.90604C10.5912 9.29285 10.2781 9.59678 9.90047 9.59678Z" fill="white"/>
<path id="Vector_3" d="M9.90064 11.8903C9.51383 11.8903 9.2099 11.5771 9.2099 11.1995C9.2099 10.8219 9.52304 10.5088 9.90064 10.5088C10.2782 10.5088 10.5914 10.8219 10.5914 11.1995C10.5914 11.5771 10.2875 11.8903 9.90064 11.8903Z" fill="white"/>
</g>
</g>
</svg>
