<svg width="32" height="32" viewBox="0 0 32 32" fill="none" xmlns="http://www.w3.org/2000/svg">
<g id="messages">
<g id="Group">
<path id="Vector" d="M23.9733 14.3867V19.72C23.9733 20.0667 23.96 20.4 23.92 20.72C23.6133 24.32 21.4933 26.1066 17.5867 26.1066H17.0533C16.72 26.1066 16.4 26.2667 16.2 26.5333L14.6 28.6667C13.8933 29.6133 12.7467 29.6133 12.04 28.6667L10.44 26.5333C10.2666 26.3067 9.87999 26.1066 9.58666 26.1066H9.05333C4.8 26.1066 2.66666 25.0533 2.66666 19.72V14.3867C2.66666 10.48 4.46667 8.36001 8.05333 8.05334C8.37333 8.01334 8.70667 8 9.05333 8H17.5867C21.84 8 23.9733 10.1333 23.9733 14.3867Z" stroke="#6A6A6A" stroke-width="1.5" stroke-miterlimit="10" stroke-linecap="round" stroke-linejoin="round"/>
</g>
<path id="Vector_2" d="M29.3067 9.05318V14.3865C29.3067 18.3065 27.5067 20.4132 23.92 20.7198C23.96 20.3998 23.9733 20.0665 23.9733 19.7198V14.3865C23.9733 10.1332 21.84 7.99984 17.5867 7.99984H9.05334C8.70668 7.99984 8.37334 8.01318 8.05334 8.05318C8.36001 4.46652 10.48 2.6665 14.3867 2.6665H22.92C27.1733 2.6665 29.3067 4.79985 29.3067 9.05318Z" stroke="#6A6A6A" stroke-width="1.5" stroke-miterlimit="10" stroke-linecap="round" stroke-linejoin="round"/>
<path id="Vector_3" d="M17.994 17.6667H18.006" stroke="#6A6A6A" stroke-width="2" stroke-linecap="round" stroke-linejoin="round"/>
<path id="Vector_4" d="M13.3273 17.6667H13.3393" stroke="#6A6A6A" stroke-width="2" stroke-linecap="round" stroke-linejoin="round"/>
<path id="Vector_5" d="M8.66067 17.6667H8.67267" stroke="#6A6A6A" stroke-width="2" stroke-linecap="round" stroke-linejoin="round"/>
</g>
</svg>
